<?xml version="1.0" standalone="no"?>
<!DOCTYPE svg PUBLIC "-//W3C//DTD SVG 20010904//EN"
 "http://www.w3.org/TR/2001/REC-SVG-20010904/DTD/svg10.dtd">
<svg version="1.0" xmlns="http://www.w3.org/2000/svg"
 width="900.000000pt" height="900.000000pt" viewBox="0 0 900.000000 900.000000"
 preserveAspectRatio="xMidYMid meet">

<g transform="translate(0.000000,900.000000) scale(0.100000,-0.100000)"
fill="#000000" stroke="none">
<path d="M2725 8982 c-65 -23 -105 -51 -140 -102 -59 -85 -55 184 -55 -3952
l0 -3808 280 0 280 0 0 1536 c0 1225 3 1535 13 1531 470 -209 743 -278 1107
-279 403 -1 757 103 1095 323 226 147 402 308 624 574 526 628 1080 1002 2044
1381 178 70 666 253 714 268 13 4 23 11 23 16 0 24 -268 236 -465 367 -549
365 -1138 601 -1755 702 -211 35 -364 47 -670 56 -745 21 -1300 124 -1750 325
-246 110 -482 265 -655 429 -171 163 -325 354 -325 405 0 86 -97 202 -191 230
-67 20 -111 20 -174 -2z"/>
<path d="M1835 2710 c-134 -29 -335 -85 -465 -131 -139 -49 -407 -178 -510
-246 -460 -303 -658 -725 -546 -1167 152 -599 876 -1021 1956 -1141 197 -22
681 -31 895 -16 811 57 1449 279 1822 634 245 234 354 468 354 763 0 276 -103
506 -323 725 -78 77 -213 181 -315 243 -177 106 -451 217 -705 285 -114 31
-298 71 -324 71 -12 0 -14 -48 -14 -284 l0 -285 58 -11 c96 -19 329 -89 436
-131 209 -83 345 -167 467 -289 115 -114 151 -186 157 -309 3 -68 -1 -98 -17
-144 -89 -255 -448 -478 -976 -608 -295 -72 -620 -109 -964 -109 -1045 0
-1893 338 -1972 786 -37 210 138 438 458 598 158 79 427 170 606 206 l57 11 0
285 0 284 -22 -1 c-13 0 -63 -9 -113 -19z"/>
</g>
</svg>
