<svg version="1.1" id="Layer_1" xmlns="http://www.w3.org/2000/svg" xmlns:xlink="http://www.w3.org/1999/xlink" x="0px" y="0px"
	 width="100%" viewBox="0 0 1999 999" enable-background="new 0 0 1999 999" xml:space="preserve">
<path fill="#000000" opacity="1.000000" stroke="none" 
	d="
M1486.000000,1000.000000 
	C990.666748,1000.000000 495.833496,1000.000000 1.000199,1000.000000 
	C1.000133,667.000122 1.000133,334.000305 1.000066,1.000333 
	C667.333069,1.000222 1333.666138,1.000222 1999.999268,1.000111 
	C1999.999512,333.999664 1999.999512,666.999329 1999.999756,999.999512 
	C1828.833374,1000.000000 1657.666626,1000.000000 1486.000000,1000.000000 
M1014.104858,190.555359 
	C1009.534912,185.334732 1005.270935,179.801544 1000.327881,174.961975 
	C991.459534,166.279358 982.380066,157.788071 973.033813,149.623123 
	C956.337219,135.036819 937.561096,123.498482 917.615295,113.996689 
	C898.933167,105.096931 879.437012,98.397217 859.257202,93.509773 
	C836.539978,88.007751 813.428772,86.141808 790.247314,85.186646 
	C779.742493,84.753815 769.107422,85.912338 758.616577,87.100815 
	C745.097168,88.632385 731.489014,90.137573 718.240662,93.094887 
	C704.520874,96.157455 690.785278,99.956802 677.786987,105.233200 
	C662.638367,111.382477 647.822083,118.699364 633.720093,126.972839 
	C621.458374,134.166672 610.007568,142.923065 598.927917,151.890366 
	C591.004089,158.303558 584.172791,166.097626 577.067566,173.481125 
	C571.603821,179.158905 566.472778,185.156860 560.737305,191.518814 
	C515.283081,132.686218 456.778168,95.771896 382.726807,87.286560 
	C308.903534,78.827354 242.769287,98.440002 185.513306,148.386459 
	C185.269104,145.964355 185.199265,144.549271 184.966476,143.161514 
	C184.723053,141.710388 184.345810,140.279846 183.987900,138.850113 
	C179.024399,119.023262 168.109528,103.752647 149.011154,95.629761 
	C133.884705,89.196213 117.985481,87.566650 101.535355,89.890030 
	C81.173042,92.765961 65.559235,103.397980 53.125694,118.886620 
	C43.279827,131.151764 40.085548,146.119263 40.077579,161.490036 
	C39.963913,380.809906 39.946716,600.129944 40.137512,819.449707 
	C40.148514,832.093628 42.870518,844.441589 49.292702,855.836365 
	C61.703205,877.856079 79.759392,891.759399 104.854813,896.085815 
	C127.406448,899.973694 146.927856,893.794067 163.400894,878.059937 
	C180.305115,861.914001 187.878433,841.576782 187.906662,818.673950 
	C188.089859,670.016602 187.962204,521.358826 188.088379,372.701355 
	C188.096619,362.981445 188.572296,353.127747 190.197174,343.568542 
	C195.062531,314.945251 207.943558,290.161163 228.208069,269.368591 
	C239.835999,257.437653 253.876816,249.012009 268.914459,241.943375 
	C286.118622,233.856369 304.311859,229.491364 323.003113,228.208267 
	C349.937714,226.359283 376.269379,229.652893 401.420715,240.623444 
	C422.710297,249.909561 440.864807,263.005890 455.568054,281.011200 
	C466.535248,294.441498 474.496246,309.547516 479.735016,325.892548 
	C485.193085,342.921875 486.851074,360.789185 486.877228,378.555786 
	C487.093994,525.713196 487.085785,672.871094 486.883362,820.028503 
	C486.859985,837.014771 491.162323,852.205566 500.982758,865.915588 
	C513.403687,883.256104 530.071350,894.459595 551.266479,896.758301 
	C574.222717,899.247864 594.438965,892.398376 611.150330,875.532349 
	C626.550293,859.989624 633.910522,841.384460 633.929504,819.946350 
	C634.063965,668.122437 633.969910,516.298279 634.097107,364.474335 
	C634.102966,357.466949 635.007935,350.356049 636.396790,343.475586 
	C639.361938,328.786224 643.581360,314.377686 651.830872,301.691132 
	C658.176819,291.932007 664.613708,282.034943 672.387146,273.445465 
	C685.332520,259.141235 701.765442,249.308151 719.262085,241.398239 
	C735.883728,233.883881 753.532104,229.470154 771.572327,228.315994 
	C785.283630,227.438797 799.212830,228.863556 812.970154,230.099014 
	C828.660889,231.508133 843.431702,236.700531 857.388000,243.855331 
	C873.194946,251.958893 887.352112,262.160828 898.830444,276.112274 
	C908.955383,288.418610 916.822327,301.877899 922.723572,316.529663 
	C930.728638,336.405060 932.845825,357.453461 932.878479,378.544983 
	C933.107788,526.535583 932.991211,674.526733 933.042480,822.517700 
	C933.044006,826.957703 933.387390,831.441406 934.059448,835.829956 
	C937.301758,857.002258 949.405457,872.656555 965.815674,885.331970 
	C978.590515,895.199463 993.507080,897.865967 1009.294678,897.014832 
	C1023.460449,896.251038 1036.414551,891.886475 1047.842163,883.561340 
	C1058.819946,875.563843 1067.349365,865.362122 1073.727417,853.425537 
	C1075.751343,854.830322 1077.780273,856.228149 1079.798340,857.641479 
	C1085.435181,861.589355 1090.636841,866.490295 1096.794312,869.291931 
	C1108.440552,874.590759 1120.506226,879.067810 1132.647339,883.142639 
	C1140.495483,885.776733 1148.704712,888.068420 1156.899780,888.756653 
	C1168.205444,889.706055 1179.672119,888.548828 1191.029907,889.106750 
	C1207.875366,889.934265 1223.479614,884.830811 1239.013306,879.701599 
	C1247.964111,876.746155 1256.605713,872.611938 1264.987183,868.242432 
	C1273.454590,863.828186 1279.857666,856.818359 1286.077759,849.569214 
	C1295.472290,838.620056 1304.121826,827.339355 1309.129517,813.606689 
	C1313.970581,800.331116 1318.397095,787.014282 1318.031006,772.598572 
	C1317.843628,765.223328 1318.175171,757.833618 1317.930176,750.461731 
	C1317.790039,746.240845 1317.520752,741.877930 1316.333862,737.867554 
	C1313.569946,728.527283 1310.353760,719.312256 1307.068237,710.136963 
	C1302.105957,696.278931 1293.413940,684.639343 1283.727295,673.910706 
	C1275.088989,664.343201 1265.410767,655.713989 1256.180908,646.681396 
	C1247.973389,638.649353 1239.449341,630.912720 1231.644653,622.507385 
	C1226.615112,617.090759 1222.632202,610.702271 1217.937988,604.425537 
	C1227.286621,602.895813 1235.713135,600.239563 1240.799927,593.382324 
	C1258.754639,569.178711 1256.822388,551.556458 1240.069214,530.433350 
	C1234.687622,523.648071 1228.712158,517.302307 1222.687988,511.064789 
	C1210.006348,497.933899 1199.321045,483.257874 1189.656738,467.890015 
	C1184.992920,460.473694 1181.121704,452.550842 1179.833008,443.427368 
	C1178.520508,434.135590 1176.734985,424.665192 1173.357666,415.971924 
	C1169.020386,404.807831 1161.160522,396.432617 1148.571045,393.626373 
	C1145.892578,393.029327 1142.106323,392.143555 1142.073853,388.053528 
	C1141.985352,376.926544 1141.022949,365.749756 1147.633545,355.600189 
	C1152.035278,348.842010 1155.833130,347.414398 1162.327393,351.948425 
	C1171.081543,358.060150 1180.764771,360.678802 1191.393433,361.115234 
	C1200.550049,361.491211 1204.102783,357.525909 1204.929688,348.098877 
	C1205.332764,343.501526 1207.130249,340.264221 1211.370728,338.175323 
	C1216.644409,335.577484 1217.669067,332.502472 1215.417725,326.894226 
	C1225.591675,320.000549 1214.996948,314.076813 1213.881836,307.619568 
	C1226.323486,305.462097 1226.259888,299.475739 1221.911011,290.248688 
	C1219.774414,285.715454 1217.797363,281.107300 1215.723999,276.543945 
	C1214.358765,273.539215 1214.812012,271.864288 1218.391602,270.672455 
	C1221.908691,269.501404 1225.794067,267.822235 1225.797241,262.654144 
	C1222.907959,263.121155 1220.329834,263.537811 1217.751709,263.954498 
	C1217.535034,263.576996 1217.318237,263.199463 1217.101562,262.821960 
	C1219.872192,260.232483 1222.637573,257.637451 1225.414795,255.055145 
	C1228.143677,252.517822 1230.049194,248.483505 1234.960815,249.845139 
	C1235.229004,249.919495 1235.730835,248.948288 1236.196289,248.548019 
	C1238.115234,246.897598 1240.062134,245.279648 1242.787598,242.985962 
	C1242.609741,240.199203 1244.150269,237.412796 1248.264404,237.615311 
	C1249.026611,234.844955 1248.990356,231.127686 1250.413574,230.442642 
	C1258.331421,226.631760 1251.910522,220.488815 1253.139893,215.691360 
	C1253.396240,214.691437 1249.986450,212.617157 1250.293213,211.786911 
	C1252.355591,206.204208 1248.321045,203.840881 1245.492554,201.619385 
	C1246.647461,198.521591 1247.613770,195.929504 1248.590210,193.310394 
	C1244.579834,191.726868 1241.414917,190.477219 1238.258545,189.230896 
	C1241.026001,182.100662 1240.854248,181.921173 1230.415649,180.506378 
	C1230.109619,178.839386 1229.793701,177.117935 1229.453613,175.265045 
	C1227.881714,175.166916 1226.573242,175.098892 1225.266846,174.999802 
	C1223.974365,174.901764 1222.684326,174.772369 1221.965088,174.707947 
	C1220.938721,172.219727 1220.635376,169.383011 1219.129028,168.411285 
	C1217.559448,167.398865 1214.829224,168.185486 1212.624268,168.185486 
	C1214.099243,164.066650 1211.645020,161.997253 1208.074463,162.178726 
	C1201.768188,162.499222 1195.057617,158.476913 1189.073120,163.751251 
	C1188.490479,164.264847 1186.518799,163.606232 1185.412720,163.051376 
	C1180.919678,160.797241 1176.596313,158.191635 1172.045166,156.070358 
	C1168.880615,154.595383 1167.017700,153.074799 1167.882935,149.063995 
	C1168.518066,146.120148 1166.588257,142.806137 1169.715576,140.084885 
	C1170.523804,139.381561 1169.913086,136.918777 1169.764893,135.281326 
	C1169.620850,133.689270 1169.253540,132.115372 1168.948608,130.540390 
	C1168.550415,128.483658 1167.946533,126.449883 1167.749390,124.375961 
	C1167.569702,122.485451 1167.148438,120.150642 1168.011841,118.725525 
	C1169.808228,115.760567 1169.965698,113.902786 1166.815186,111.799156 
	C1165.441650,110.881943 1164.248169,108.713654 1164.161011,107.051254 
	C1163.967163,103.352562 1162.171631,102.092514 1158.827881,101.979393 
	C1157.210815,101.924675 1154.604004,102.123367 1154.151733,101.285889 
	C1150.932739,95.324234 1146.989746,97.288414 1143.051758,100.066917 
	C1139.438110,95.152321 1139.451050,95.336754 1134.159302,95.707497 
	C1133.188965,95.775475 1132.017578,93.706032 1131.025513,92.549057 
	C1129.763916,91.077736 1128.721680,88.437561 1127.348145,88.272758 
	C1125.287964,88.025574 1123.022217,89.492332 1120.549316,90.329994 
	C1120.247559,89.781723 1119.751465,87.841255 1119.041748,87.759705 
	C1114.491699,87.236862 1109.813599,86.521484 1105.347412,87.125610 
	C1103.106812,87.428703 1101.204346,89.178497 1098.758179,87.454170 
	C1098.064209,86.965019 1096.299805,86.775383 1095.954834,87.201012 
	C1092.943359,90.915657 1089.023315,90.662613 1084.948364,90.150284 
	C1084.564087,90.101974 1084.138062,90.738983 1083.683594,90.837860 
	C1079.536377,91.740158 1075.354614,92.495079 1071.232300,93.496315 
	C1068.515381,94.156227 1065.929443,95.504875 1063.192749,95.888268 
	C1060.780762,96.226166 1059.134766,96.452957 1058.882568,99.428635 
	C1058.637695,102.318474 1056.563477,102.335739 1054.495850,101.185913 
	C1050.545654,98.989174 1048.185669,101.077499 1045.765015,103.925423 
	C1044.895630,104.948265 1042.849731,106.078636 1041.877563,105.717026 
	C1037.424927,104.060722 1034.395020,105.468506 1031.902222,109.150642 
	C1031.398193,109.895226 1030.468140,110.754776 1029.666260,110.829597 
	C1024.095337,111.349464 1022.775391,114.987389 1022.968445,119.713104 
	C1023.070007,122.199387 1022.678711,123.999329 1019.622253,124.024849 
	C1016.316040,124.052437 1015.186646,125.951927 1014.824219,129.127762 
	C1014.662231,130.546844 1013.072815,132.274307 1011.682800,132.985779 
	C1008.604858,134.561295 1006.754578,136.329819 1006.871399,140.177261 
	C1006.957214,143.004623 1006.797546,146.689270 1005.131165,148.524857 
	C1002.497070,151.426620 1002.764893,153.602692 1004.697510,156.135406 
	C1006.679932,158.733368 1007.964355,160.845963 1005.006348,163.881897 
	C1004.090088,164.822327 1004.710449,167.861313 1005.419067,169.620422 
	C1006.182373,171.515030 1007.874817,173.035309 1008.932373,174.418732 
	C1008.932373,176.182312 1008.226929,179.741409 1009.048523,180.138138 
	C1013.861694,182.462357 1013.687378,187.003235 1014.104858,190.555359 
M1447.366211,514.999634 
	C1449.198608,514.976746 1451.096436,515.260620 1452.853394,514.884949 
	C1478.771240,509.341949 1497.304565,488.674042 1497.032349,461.856079 
	C1496.859741,444.858765 1496.999878,427.858276 1496.999878,410.859192 
	C1496.999878,409.079437 1496.999878,407.299683 1496.999878,404.999573 
	C1499.717285,404.999573 1501.840332,405.028931 1503.962280,404.994995 
	C1524.068970,404.673645 1544.221069,405.052704 1564.266235,403.767395 
	C1578.089355,402.881104 1588.655029,394.609589 1597.037476,383.799896 
	C1607.029663,370.914185 1608.594116,356.263672 1606.026855,340.702515 
	C1602.068359,316.706696 1579.487549,297.025391 1555.122070,297.003571 
	C1537.623047,296.987915 1520.124023,297.000305 1502.625000,297.000183 
	C1500.868042,297.000183 1499.111084,297.000183 1496.999756,297.000183 
	C1496.999756,294.423981 1496.999756,292.613525 1496.999756,290.803101 
	C1496.999756,273.637360 1496.888184,256.470734 1497.029663,239.306152 
	C1497.185059,220.459854 1488.130127,206.557205 1473.529907,195.926193 
	C1461.241943,186.978821 1447.206299,185.439301 1432.496460,187.947968 
	C1409.366821,191.892578 1388.643921,213.913315 1388.958984,239.408386 
	C1389.173218,256.738129 1389.006958,274.072662 1388.990356,291.405060 
	C1388.988647,293.166412 1388.846558,294.927612 1388.755859,297.000488 
	C1369.567383,297.000488 1350.921509,296.954498 1332.276245,297.043823 
	C1329.002319,297.059509 1325.702881,297.468719 1322.462891,297.991058 
	C1294.991577,302.420288 1275.130371,329.371796 1279.171997,359.484039 
	C1282.544312,384.609711 1306.393799,405.846558 1332.022461,405.095154 
	C1349.173462,404.592285 1366.351196,404.992462 1383.516968,405.010406 
	C1385.269043,405.012238 1387.020752,405.164368 1389.000366,405.257446 
	C1389.000366,413.523254 1388.892578,421.182220 1389.023560,428.837128 
	C1389.270752,443.277466 1388.917236,457.780640 1390.186035,472.136414 
	C1391.509277,487.105499 1401.004761,497.726501 1412.682007,506.150085 
	C1422.642944,513.335632 1434.123657,516.002075 1447.366211,514.999634 
z"/>
<path fill="#1B7794" opacity="1.000000" stroke="none" 
	d="
M1073.159668,852.996277 
	C1067.349365,865.362122 1058.819946,875.563843 1047.842163,883.561340 
	C1036.414551,891.886475 1023.460449,896.251038 1009.294678,897.014832 
	C993.507080,897.865967 978.590515,895.199463 965.815674,885.331970 
	C949.405457,872.656555 937.301758,857.002258 934.059448,835.829956 
	C933.387390,831.441406 933.044006,826.957703 933.042480,822.517700 
	C932.991211,674.526733 933.107788,526.535583 932.878479,378.544983 
	C932.845825,357.453461 930.728638,336.405060 922.723572,316.529663 
	C916.822327,301.877899 908.955383,288.418610 898.830444,276.112274 
	C887.352112,262.160828 873.194946,251.958893 857.388000,243.855331 
	C843.431702,236.700531 828.660889,231.508133 812.970154,230.099014 
	C799.212830,228.863556 785.283630,227.438797 771.572327,228.315994 
	C753.532104,229.470154 735.883728,233.883881 719.262085,241.398239 
	C701.765442,249.308151 685.332520,259.141235 672.387146,273.445465 
	C664.613708,282.034943 658.176819,291.932007 651.830872,301.691132 
	C643.581360,314.377686 639.361938,328.786224 636.396790,343.475586 
	C635.007935,350.356049 634.102966,357.466949 634.097107,364.474335 
	C633.969910,516.298279 634.063965,668.122437 633.929504,819.946350 
	C633.910522,841.384460 626.550293,859.989624 611.150330,875.532349 
	C594.438965,892.398376 574.222717,899.247864 551.266479,896.758301 
	C530.071350,894.459595 513.403687,883.256104 500.982758,865.915588 
	C491.162323,852.205566 486.859985,837.014771 486.883362,820.028503 
	C487.085785,672.871094 487.093994,525.713196 486.877228,378.555786 
	C486.851074,360.789185 485.193085,342.921875 479.735016,325.892548 
	C474.496246,309.547516 466.535248,294.441498 455.568054,281.011200 
	C440.864807,263.005890 422.710297,249.909561 401.420715,240.623444 
	C376.269379,229.652893 349.937714,226.359283 323.003113,228.208267 
	C304.311859,229.491364 286.118622,233.856369 268.914459,241.943375 
	C253.876816,249.012009 239.835999,257.437653 228.208069,269.368591 
	C207.943558,290.161163 195.062531,314.945251 190.197174,343.568542 
	C188.572296,353.127747 188.096619,362.981445 188.088379,372.701355 
	C187.962204,521.358826 188.089859,670.016602 187.906662,818.673950 
	C187.878433,841.576782 180.305115,861.914001 163.400894,878.059937 
	C146.927856,893.794067 127.406448,899.973694 104.854813,896.085815 
	C79.759392,891.759399 61.703205,877.856079 49.292702,855.836365 
	C42.870518,844.441589 40.148514,832.093628 40.137512,819.449707 
	C39.946716,600.129944 39.963913,380.809906 40.077579,161.490036 
	C40.085548,146.119263 43.279827,131.151764 53.125694,118.886620 
	C65.559235,103.397980 81.173042,92.765961 101.535355,89.890030 
	C117.985481,87.566650 133.884705,89.196213 149.011154,95.629761 
	C168.109528,103.752647 179.024399,119.023262 183.987900,138.850113 
	C184.345810,140.279846 184.723053,141.710388 184.966476,143.161514 
	C185.199265,144.549271 185.269104,145.964355 185.513306,148.386459 
	C242.769287,98.440002 308.903534,78.827354 382.726807,87.286560 
	C456.778168,95.771896 515.283081,132.686218 560.737305,191.518814 
	C566.472778,185.156860 571.603821,179.158905 577.067566,173.481125 
	C584.172791,166.097626 591.004089,158.303558 598.927917,151.890366 
	C610.007568,142.923065 621.458374,134.166672 633.720093,126.972839 
	C647.822083,118.699364 662.638367,111.382477 677.786987,105.233200 
	C690.785278,99.956802 704.520874,96.157455 718.240662,93.094887 
	C731.489014,90.137573 745.097168,88.632385 758.616577,87.100815 
	C769.107422,85.912338 779.742493,84.753815 790.247314,85.186646 
	C813.428772,86.141808 836.539978,88.007751 859.257202,93.509773 
	C879.437012,98.397217 898.933167,105.096931 917.615295,113.996689 
	C937.561096,123.498482 956.337219,135.036819 973.033813,149.623123 
	C982.380066,157.788071 991.459534,166.279358 1000.327881,174.961975 
	C1005.270935,179.801544 1009.534912,185.334732 1014.568420,191.001312 
	C1021.082581,199.981232 1027.133179,208.515198 1033.253540,217.379547 
	C1045.484497,236.118011 1054.922729,255.900391 1061.913452,276.756653 
	C1066.459839,290.320343 1069.881714,304.260956 1073.868164,318.472839 
	C1074.161377,321.559753 1074.364746,324.209473 1074.631470,326.852783 
	C1076.084717,341.251892 1078.742432,355.642334 1078.828613,370.048645 
	C1079.498657,481.997284 1079.711792,593.948792 1079.958496,705.899658 
	C1079.992554,721.379395 1079.284912,736.859497 1079.187256,752.341187 
	C1079.046265,774.666382 1079.040771,796.994019 1079.197510,819.318970 
	C1079.268555,829.449280 1077.685547,839.198975 1074.167114,848.675293 
	C1073.656494,850.050720 1073.486938,851.552795 1073.159668,852.996277 
z"/>
<path fill="#9E266A" opacity="1.000000" stroke="none" 
	d="
M1073.443604,853.210938 
	C1073.486938,851.552795 1073.656494,850.050720 1074.167114,848.675293 
	C1077.685547,839.198975 1079.268555,829.449280 1079.197510,819.318970 
	C1079.040771,796.994019 1079.046265,774.666382 1079.187256,752.341187 
	C1079.284912,736.859497 1079.992554,721.379395 1079.958496,705.899658 
	C1079.711792,593.948792 1079.498657,481.997284 1078.828613,370.048645 
	C1078.742432,355.642334 1076.084717,341.251892 1074.631470,326.852783 
	C1074.364746,324.209473 1074.161377,321.559753 1073.937134,318.038269 
	C1075.630493,309.218445 1074.446655,301.557220 1071.558105,294.098145 
	C1067.062622,282.490173 1062.006836,271.070587 1058.116577,259.265320 
	C1054.456055,248.157333 1051.996826,236.653519 1049.208740,226.080399 
	C1047.244751,224.879242 1044.766968,224.248123 1044.064819,222.772232 
	C1041.762451,217.932846 1038.114258,216.474106 1033.183838,217.049164 
	C1027.133179,208.515198 1021.082581,199.981232 1014.921814,191.227966 
	C1013.687378,187.003235 1013.861694,182.462357 1009.048523,180.138138 
	C1008.226929,179.741409 1008.932373,176.182312 1008.932373,174.418732 
	C1007.874817,173.035309 1006.182373,171.515030 1005.419067,169.620422 
	C1004.710449,167.861313 1004.090088,164.822327 1005.006348,163.881897 
	C1007.964355,160.845963 1006.679932,158.733368 1004.697510,156.135406 
	C1002.764893,153.602692 1002.497070,151.426620 1005.131165,148.524857 
	C1006.797546,146.689270 1006.957214,143.004623 1006.871399,140.177261 
	C1006.754578,136.329819 1008.604858,134.561295 1011.682800,132.985779 
	C1013.072815,132.274307 1014.662231,130.546844 1014.824219,129.127762 
	C1015.186646,125.951927 1016.316040,124.052437 1019.622253,124.024849 
	C1022.678711,123.999329 1023.070007,122.199387 1022.968445,119.713104 
	C1022.775391,114.987389 1024.095337,111.349464 1029.666260,110.829597 
	C1030.468140,110.754776 1031.398193,109.895226 1031.902222,109.150642 
	C1034.395020,105.468506 1037.424927,104.060722 1041.877563,105.717026 
	C1042.849731,106.078636 1044.895630,104.948265 1045.765015,103.925423 
	C1048.185669,101.077499 1050.545654,98.989174 1054.495850,101.185913 
	C1056.563477,102.335739 1058.637695,102.318474 1058.882568,99.428635 
	C1059.134766,96.452957 1060.780762,96.226166 1063.192749,95.888268 
	C1065.929443,95.504875 1068.515381,94.156227 1071.232300,93.496315 
	C1075.354614,92.495079 1079.536377,91.740158 1083.683594,90.837860 
	C1084.138062,90.738983 1084.564087,90.101974 1084.948364,90.150284 
	C1089.023315,90.662613 1092.943359,90.915657 1095.954834,87.201012 
	C1096.299805,86.775383 1098.064209,86.965019 1098.758179,87.454170 
	C1101.204346,89.178497 1103.106812,87.428703 1105.347412,87.125610 
	C1109.813599,86.521484 1114.491699,87.236862 1119.041748,87.759705 
	C1119.751465,87.841255 1120.247559,89.781723 1120.549316,90.329994 
	C1123.022217,89.492332 1125.287964,88.025574 1127.348145,88.272758 
	C1128.721680,88.437561 1129.763916,91.077736 1131.025513,92.549057 
	C1132.017578,93.706032 1133.188965,95.775475 1134.159302,95.707497 
	C1139.451050,95.336754 1139.438110,95.152321 1143.051758,100.066917 
	C1146.989746,97.288414 1150.932739,95.324234 1154.151733,101.285889 
	C1154.604004,102.123367 1157.210815,101.924675 1158.827881,101.979393 
	C1162.171631,102.092514 1163.967163,103.352562 1164.161011,107.051254 
	C1164.248169,108.713654 1165.441650,110.881943 1166.815186,111.799156 
	C1169.965698,113.902786 1169.808228,115.760567 1168.011841,118.725525 
	C1167.148438,120.150642 1167.569702,122.485451 1167.749390,124.375961 
	C1167.946533,126.449883 1168.550415,128.483658 1168.948608,130.540390 
	C1169.253540,132.115372 1169.620850,133.689270 1169.764893,135.281326 
	C1169.913086,136.918777 1170.523804,139.381561 1169.715576,140.084885 
	C1166.588257,142.806137 1168.518066,146.120148 1167.882935,149.063995 
	C1167.017700,153.074799 1168.880615,154.595383 1172.045166,156.070358 
	C1176.596313,158.191635 1180.919678,160.797241 1185.412720,163.051376 
	C1186.518799,163.606232 1188.490479,164.264847 1189.073120,163.751251 
	C1195.057617,158.476913 1201.768188,162.499222 1208.074463,162.178726 
	C1211.645020,161.997253 1214.099243,164.066650 1212.624268,168.185486 
	C1214.829224,168.185486 1217.559448,167.398865 1219.129028,168.411285 
	C1220.635376,169.383011 1220.938721,172.219727 1221.965088,174.707947 
	C1222.684326,174.772369 1223.974365,174.901764 1225.266846,174.999802 
	C1226.573242,175.098892 1227.881714,175.166916 1229.453613,175.265045 
	C1229.793701,177.117935 1230.109619,178.839386 1230.415649,180.506378 
	C1240.854248,181.921173 1241.026001,182.100662 1238.258545,189.230896 
	C1241.414917,190.477219 1244.579834,191.726868 1248.590210,193.310394 
	C1247.613770,195.929504 1246.647461,198.521591 1245.492554,201.619385 
	C1248.321045,203.840881 1252.355591,206.204208 1250.293213,211.786911 
	C1249.986450,212.617157 1253.396240,214.691437 1253.139893,215.691360 
	C1251.910522,220.488815 1258.331421,226.631760 1250.413574,230.442642 
	C1248.990356,231.127686 1249.026611,234.844955 1248.264404,237.615311 
	C1244.150269,237.412796 1242.609741,240.199203 1242.787598,242.985962 
	C1240.062134,245.279648 1238.115234,246.897598 1236.196289,248.548019 
	C1235.730835,248.948288 1235.229004,249.919495 1234.960815,249.845139 
	C1230.049194,248.483505 1228.143677,252.517822 1225.414795,255.055145 
	C1222.637573,257.637451 1219.872192,260.232483 1217.101562,262.821960 
	C1217.318237,263.199463 1217.535034,263.576996 1217.751709,263.954498 
	C1220.329834,263.537811 1222.907959,263.121155 1225.797241,262.654144 
	C1225.794067,267.822235 1221.908691,269.501404 1218.391602,270.672455 
	C1214.812012,271.864288 1214.358765,273.539215 1215.723999,276.543945 
	C1217.797363,281.107300 1219.774414,285.715454 1221.911011,290.248688 
	C1226.259888,299.475739 1226.323486,305.462097 1213.881836,307.619568 
	C1214.996948,314.076813 1225.591675,320.000549 1215.417725,326.894226 
	C1217.669067,332.502472 1216.644409,335.577484 1211.370728,338.175323 
	C1207.130249,340.264221 1205.332764,343.501526 1204.929688,348.098877 
	C1204.102783,357.525909 1200.550049,361.491211 1191.393433,361.115234 
	C1180.764771,360.678802 1171.081543,358.060150 1162.327393,351.948425 
	C1155.833130,347.414398 1152.035278,348.842010 1147.633545,355.600189 
	C1141.022949,365.749756 1141.985352,376.926544 1142.073853,388.053528 
	C1142.106323,392.143555 1145.892578,393.029327 1148.571045,393.626373 
	C1161.160522,396.432617 1169.020386,404.807831 1173.357666,415.971924 
	C1176.734985,424.665192 1178.520508,434.135590 1179.833008,443.427368 
	C1181.121704,452.550842 1184.992920,460.473694 1189.656738,467.890015 
	C1199.321045,483.257874 1210.006348,497.933899 1222.687988,511.064789 
	C1228.712158,517.302307 1234.687622,523.648071 1240.069214,530.433350 
	C1256.822388,551.556458 1258.754639,569.178711 1240.799927,593.382324 
	C1235.713135,600.239563 1227.286621,602.895813 1217.937988,604.425537 
	C1222.632202,610.702271 1226.615112,617.090759 1231.644653,622.507385 
	C1239.449341,630.912720 1247.973389,638.649353 1256.180908,646.681396 
	C1265.410767,655.713989 1275.088989,664.343201 1283.727295,673.910706 
	C1293.413940,684.639343 1302.105957,696.278931 1307.068237,710.136963 
	C1310.353760,719.312256 1313.569946,728.527283 1316.333862,737.867554 
	C1317.520752,741.877930 1317.790039,746.240845 1317.930176,750.461731 
	C1318.175171,757.833618 1317.843628,765.223328 1318.031006,772.598572 
	C1318.397095,787.014282 1313.970581,800.331116 1309.129517,813.606689 
	C1304.121826,827.339355 1295.472290,838.620056 1286.077759,849.569214 
	C1279.857666,856.818359 1273.454590,863.828186 1264.987183,868.242432 
	C1256.605713,872.611938 1247.964111,876.746155 1239.013306,879.701599 
	C1223.479614,884.830811 1207.875366,889.934265 1191.029907,889.106750 
	C1179.672119,888.548828 1168.205444,889.706055 1156.899780,888.756653 
	C1148.704712,888.068420 1140.495483,885.776733 1132.647339,883.142639 
	C1120.506226,879.067810 1108.440552,874.590759 1096.794312,869.291931 
	C1090.636841,866.490295 1085.435181,861.589355 1079.798340,857.641479 
	C1077.780273,856.228149 1075.751343,854.830322 1073.443604,853.210938 
M1168.151733,732.499939 
	C1168.152100,745.828064 1168.231201,759.156921 1168.093262,772.483643 
	C1168.061401,775.563843 1168.800537,777.236755 1172.163574,777.176575 
	C1173.807007,777.147095 1175.457031,777.549316 1177.105835,777.740601 
	C1181.093384,778.203308 1182.877197,776.737671 1182.637695,772.425476 
	C1182.319580,766.697021 1182.559082,760.937622 1182.559082,754.875793 
	C1185.521118,754.875793 1187.689453,755.079895 1189.806885,754.838379 
	C1196.727417,754.048950 1203.875854,753.028809 1206.252930,745.076965 
	C1209.818115,733.151428 1209.700806,720.996887 1205.934570,709.158936 
	C1203.532837,701.609924 1196.298706,698.784851 1188.942383,701.778442 
	C1186.346558,702.834900 1183.906738,704.275208 1181.154907,705.661621 
	C1178.547119,699.715149 1173.821411,700.006714 1168.151733,701.597046 
	C1168.151733,711.574524 1168.151733,721.537170 1168.151733,732.499939 
M1259.940796,702.148376 
	C1257.440308,705.294739 1253.661377,708.089050 1252.679810,711.653687 
	C1249.772217,722.212219 1250.017334,733.072266 1252.727539,743.754944 
	C1253.904175,748.392273 1256.617310,752.731201 1261.372559,753.160583 
	C1270.200195,753.957642 1279.177490,753.989136 1288.020386,753.346313 
	C1292.458008,753.023621 1290.908569,748.369202 1290.718750,745.477905 
	C1290.477783,741.807495 1287.812012,743.620789 1285.812866,743.730774 
	C1280.662231,744.014404 1275.497070,744.226562 1270.344482,744.123840 
	C1269.234131,744.101746 1267.374512,742.776917 1267.196411,741.806763 
	C1266.526001,738.155396 1266.407349,734.402649 1266.025146,730.037048 
	C1273.250244,730.037048 1279.565063,730.011536 1285.879395,730.048523 
	C1288.735840,730.065247 1290.323975,728.996887 1289.916992,725.884827 
	C1289.228882,720.623535 1288.920166,715.281982 1287.794189,710.117615 
	C1286.756592,705.357971 1283.304565,701.892456 1278.471069,701.512512 
	C1272.594116,701.050598 1266.625122,701.757996 1259.940796,702.148376 
M1227.921509,718.875610 
	C1228.473755,713.788818 1232.575562,711.708862 1238.059204,713.462036 
	C1239.778442,714.011719 1242.970215,714.522522 1243.367310,713.832031 
	C1244.888672,711.185608 1246.330200,708.007324 1246.196533,705.101440 
	C1246.130127,703.658569 1242.724243,701.643677 1240.566040,701.216492 
	C1238.167603,700.741821 1235.364136,701.458496 1232.932983,702.254761 
	C1230.670410,702.995789 1228.665527,704.523376 1226.548096,705.704163 
	C1226.058594,704.967773 1225.705200,704.585815 1225.520386,704.134888 
	C1223.722656,699.750610 1219.961548,700.511658 1216.570679,700.942078 
	C1212.569580,701.450012 1214.254639,704.825623 1214.230103,706.947327 
	C1214.078857,720.099365 1214.153809,733.253967 1214.154175,746.407715 
	C1214.154297,754.378540 1214.749390,754.800964 1222.859253,754.976074 
	C1226.773926,755.060608 1228.102173,753.746216 1228.002686,749.768066 
	C1227.753174,739.784180 1227.920776,729.789734 1227.921509,718.875610 
z"/>
<path fill="#1B7794" opacity="1.000000" stroke="none" 
	d="
M1446.884277,514.999634 
	C1434.123657,516.002075 1422.642944,513.335632 1412.682007,506.150085 
	C1401.004761,497.726501 1391.509277,487.105499 1390.186035,472.136414 
	C1388.917236,457.780640 1389.270752,443.277466 1389.023560,428.837128 
	C1388.892578,421.182220 1389.000366,413.523254 1389.000366,405.257446 
	C1387.020752,405.164368 1385.269043,405.012238 1383.516968,405.010406 
	C1366.351196,404.992462 1349.173462,404.592285 1332.022461,405.095154 
	C1306.393799,405.846558 1282.544312,384.609711 1279.171997,359.484039 
	C1275.130371,329.371796 1294.991577,302.420288 1322.462891,297.991058 
	C1325.702881,297.468719 1329.002319,297.059509 1332.276245,297.043823 
	C1350.921509,296.954498 1369.567383,297.000488 1388.755859,297.000488 
	C1388.846558,294.927612 1388.988647,293.166412 1388.990356,291.405060 
	C1389.006958,274.072662 1389.173218,256.738129 1388.958984,239.408386 
	C1388.643921,213.913315 1409.366821,191.892578 1432.496460,187.947968 
	C1447.206299,185.439301 1461.241943,186.978821 1473.529907,195.926193 
	C1488.130127,206.557205 1497.185059,220.459854 1497.029663,239.306152 
	C1496.888184,256.470734 1496.999756,273.637360 1496.999756,290.803101 
	C1496.999756,292.613525 1496.999756,294.423981 1496.999756,297.000183 
	C1499.111084,297.000183 1500.868042,297.000183 1502.625000,297.000183 
	C1520.124023,297.000305 1537.623047,296.987915 1555.122070,297.003571 
	C1579.487549,297.025391 1602.068359,316.706696 1606.026855,340.702515 
	C1608.594116,356.263672 1607.029663,370.914185 1597.037476,383.799896 
	C1588.655029,394.609589 1578.089355,402.881104 1564.266235,403.767395 
	C1544.221069,405.052704 1524.068970,404.673645 1503.962280,404.994995 
	C1501.840332,405.028931 1499.717285,404.999573 1496.999878,404.999573 
	C1496.999878,407.299683 1496.999878,409.079437 1496.999878,410.859192 
	C1496.999878,427.858276 1496.859741,444.858765 1497.032349,461.856079 
	C1497.304565,488.674042 1478.771240,509.341949 1452.853394,514.884949 
	C1451.096436,515.260620 1449.198608,514.976746 1446.884277,514.999634 
M1470.347290,425.777740 
	C1471.865967,420.082336 1474.289551,414.451721 1474.703247,408.677155 
	C1475.423218,398.625671 1474.903442,388.485352 1474.903442,378.002258 
	C1485.760010,378.002258 1496.054077,378.043427 1506.347412,377.972351 
	C1508.822021,377.955261 1511.385132,377.912231 1513.751587,377.289093 
	C1525.800781,374.116333 1533.610474,366.470764 1535.856323,354.159607 
	C1538.188354,341.376251 1533.986572,330.463104 1523.137085,323.300323 
	C1518.558105,320.277252 1512.448242,318.636688 1506.896362,318.224365 
	C1496.361694,317.441956 1485.727539,317.997864 1474.903809,317.997864 
	C1474.903809,313.499786 1474.929199,309.682953 1474.898438,305.866577 
	C1474.832520,297.707703 1475.475830,289.459045 1474.495117,281.409698 
	C1472.665649,266.394745 1458.174683,255.144989 1443.312012,256.267609 
	C1426.980713,257.501129 1414.530762,270.081970 1414.342651,285.734100 
	C1414.215210,296.339844 1414.318359,306.948395 1414.318359,317.997620 
	C1407.319092,317.997620 1400.857544,317.943604 1394.397339,318.013428 
	C1388.411743,318.078094 1382.250610,317.406433 1376.476807,318.581970 
	C1361.072632,321.718292 1351.212891,336.421661 1353.148438,352.155243 
	C1354.973267,366.987610 1367.761230,377.991119 1383.197144,378.001068 
	C1393.471313,378.007690 1403.745483,378.002319 1414.316406,378.002319 
	C1414.316406,388.605835 1414.305176,398.584076 1414.319092,408.562286 
	C1414.339111,422.901611 1422.038330,433.789612 1435.217163,438.149567 
	C1448.326294,442.486420 1461.532959,438.015076 1470.347290,425.777740 
z"/>
<path fill="#000000" opacity="1.000000" stroke="none" 
	d="
M1033.253540,217.379578 
	C1038.114258,216.474106 1041.762451,217.932846 1044.064819,222.772232 
	C1044.766968,224.248123 1047.244751,224.879242 1049.208740,226.080399 
	C1051.996826,236.653519 1054.456055,248.157333 1058.116577,259.265320 
	C1062.006836,271.070587 1067.062622,282.490173 1071.558105,294.098145 
	C1074.446655,301.557220 1075.630493,309.218445 1073.876465,317.598114 
	C1069.881714,304.260956 1066.459839,290.320343 1061.913452,276.756653 
	C1054.922729,255.900391 1045.484497,236.118011 1033.253540,217.379578 
z"/>
<path fill="#FBF7F9" opacity="1.000000" stroke="none" 
	d="
M1168.151733,731.999878 
	C1168.151733,721.537170 1168.151733,711.574524 1168.151733,701.597046 
	C1173.821411,700.006714 1178.547119,699.715149 1181.154907,705.661621 
	C1183.906738,704.275208 1186.346558,702.834900 1188.942383,701.778442 
	C1196.298706,698.784851 1203.532837,701.609924 1205.934570,709.158936 
	C1209.700806,720.996887 1209.818115,733.151428 1206.252930,745.076965 
	C1203.875854,753.028809 1196.727417,754.048950 1189.806885,754.838379 
	C1187.689453,755.079895 1185.521118,754.875793 1182.559082,754.875793 
	C1182.559082,760.937622 1182.319580,766.697021 1182.637695,772.425476 
	C1182.877197,776.737671 1181.093384,778.203308 1177.105835,777.740601 
	C1175.457031,777.549316 1173.807007,777.147095 1172.163574,777.176575 
	C1168.800537,777.236755 1168.061401,775.563843 1168.093262,772.483643 
	C1168.231201,759.156921 1168.152100,745.828064 1168.151733,731.999878 
M1192.822021,737.808655 
	C1192.822021,728.942566 1192.822021,720.076538 1192.822021,711.207703 
	C1186.531616,711.384766 1182.693481,713.178528 1182.640137,716.009460 
	C1182.462769,725.421814 1182.572998,734.839661 1182.572998,744.149109 
	C1189.868286,745.123474 1190.853516,744.539673 1192.822021,737.808655 
z"/>
<path fill="#FDF9FB" opacity="1.000000" stroke="none" 
	d="
M1260.318359,702.053955 
	C1266.625122,701.757996 1272.594116,701.050598 1278.471069,701.512512 
	C1283.304565,701.892456 1286.756592,705.357971 1287.794189,710.117615 
	C1288.920166,715.281982 1289.228882,720.623535 1289.916992,725.884827 
	C1290.323975,728.996887 1288.735840,730.065247 1285.879395,730.048523 
	C1279.565063,730.011536 1273.250244,730.037048 1266.025146,730.037048 
	C1266.407349,734.402649 1266.526001,738.155396 1267.196411,741.806763 
	C1267.374512,742.776917 1269.234131,744.101746 1270.344482,744.123840 
	C1275.497070,744.226562 1280.662231,744.014404 1285.812866,743.730774 
	C1287.812012,743.620789 1290.477783,741.807495 1290.718750,745.477905 
	C1290.908569,748.369202 1292.458008,753.023621 1288.020386,753.346313 
	C1279.177490,753.989136 1270.200195,753.957642 1261.372559,753.160583 
	C1256.617310,752.731201 1253.904175,748.392273 1252.727539,743.754944 
	C1250.017334,733.072266 1249.772217,722.212219 1252.679810,711.653687 
	C1253.661377,708.089050 1257.440308,705.294739 1260.318359,702.053955 
M1268.696533,711.200012 
	C1263.986694,713.984253 1266.757446,718.086609 1266.367432,721.645935 
	C1269.736938,721.645935 1272.623047,721.645935 1275.847656,721.645935 
	C1275.647095,719.297302 1275.344482,717.342407 1275.341431,715.387024 
	C1275.335083,711.208008 1273.485229,709.684082 1268.696533,711.200012 
z"/>
<path fill="#FCF7FA" opacity="1.000000" stroke="none" 
	d="
M1227.921143,719.337585 
	C1227.920776,729.789734 1227.753174,739.784180 1228.002686,749.768066 
	C1228.102173,753.746216 1226.773926,755.060608 1222.859253,754.976074 
	C1214.749390,754.800964 1214.154297,754.378540 1214.154175,746.407715 
	C1214.153809,733.253967 1214.078857,720.099365 1214.230103,706.947327 
	C1214.254639,704.825623 1212.569580,701.450012 1216.570679,700.942078 
	C1219.961548,700.511658 1223.722656,699.750610 1225.520386,704.134888 
	C1225.705200,704.585815 1226.058594,704.967773 1226.548096,705.704163 
	C1228.665527,704.523376 1230.670410,702.995789 1232.932983,702.254761 
	C1235.364136,701.458496 1238.167603,700.741821 1240.566040,701.216492 
	C1242.724243,701.643677 1246.130127,703.658569 1246.196533,705.101440 
	C1246.330200,708.007324 1244.888672,711.185608 1243.367310,713.832031 
	C1242.970215,714.522522 1239.778442,714.011719 1238.059204,713.462036 
	C1232.575562,711.708862 1228.473755,713.788818 1227.921143,719.337585 
z"/>
<path fill="#FEFEFE" opacity="1.000000" stroke="none" 
	d="
M1470.149902,426.083496 
	C1461.532959,438.015076 1448.326294,442.486420 1435.217163,438.149567 
	C1422.038330,433.789612 1414.339111,422.901611 1414.319092,408.562286 
	C1414.305176,398.584076 1414.316406,388.605835 1414.316406,378.002319 
	C1403.745483,378.002319 1393.471313,378.007690 1383.197144,378.001068 
	C1367.761230,377.991119 1354.973267,366.987610 1353.148438,352.155243 
	C1351.212891,336.421661 1361.072632,321.718292 1376.476807,318.581970 
	C1382.250610,317.406433 1388.411743,318.078094 1394.397339,318.013428 
	C1400.857544,317.943604 1407.319092,317.997620 1414.318359,317.997620 
	C1414.318359,306.948395 1414.215210,296.339844 1414.342651,285.734100 
	C1414.530762,270.081970 1426.980713,257.501129 1443.312012,256.267609 
	C1458.174683,255.144989 1472.665649,266.394745 1474.495117,281.409698 
	C1475.475830,289.459045 1474.832520,297.707703 1474.898438,305.866577 
	C1474.929199,309.682953 1474.903809,313.499786 1474.903809,317.997864 
	C1485.727539,317.997864 1496.361694,317.441956 1506.896362,318.224365 
	C1512.448242,318.636688 1518.558105,320.277252 1523.137085,323.300323 
	C1533.986572,330.463104 1538.188354,341.376251 1535.856323,354.159607 
	C1533.610474,366.470764 1525.800781,374.116333 1513.751587,377.289093 
	C1511.385132,377.912231 1508.822021,377.955261 1506.347412,377.972351 
	C1496.054077,378.043427 1485.760010,378.002258 1474.903442,378.002258 
	C1474.903442,388.485352 1475.423218,398.625671 1474.703247,408.677155 
	C1474.289551,414.451721 1471.865967,420.082336 1470.149902,426.083496 
z"/>
<path fill="#9F296C" opacity="1.000000" stroke="none" 
	d="
M1192.744263,738.234131 
	C1190.853516,744.539673 1189.868286,745.123474 1182.572998,744.149109 
	C1182.572998,734.839661 1182.462769,725.421814 1182.640137,716.009460 
	C1182.693481,713.178528 1186.531616,711.384766 1192.822021,711.207703 
	C1192.822021,720.076538 1192.822021,728.942566 1192.744263,738.234131 
z"/>
<path fill="#A33172" opacity="1.000000" stroke="none" 
	d="
M1269.074585,711.087769 
	C1273.485229,709.684082 1275.335083,711.208008 1275.341431,715.387024 
	C1275.344482,717.342407 1275.647095,719.297302 1275.847656,721.645935 
	C1272.623047,721.645935 1269.736938,721.645935 1266.367432,721.645935 
	C1266.757446,718.086609 1263.986694,713.984253 1269.074585,711.087769 
z"/>
</svg>